HIERARCHY
ROOT Hips
{
	OFFSET -0.001795 -0.223333 0.028219
	CHANNELS 6 Xposition Yposition Zposition Zrotation Yrotation Xrotation 
	JOINT LeftUpLeg
	{
		OFFSET 0.069520 -0.091406 -0.006815
		CHANNELS 3 Zrotation Yrotation Xrotation
		JOINT LeftLeg
		{
			OFFSET 0.034277 -0.375199 -0.004496
			CHANNELS 3 Zrotation Yrotation Xrotation
			JOINT LeftFoot
			{
				OFFSET -0.013596 -0.397961 -0.043693
				CHANNELS 3 Zrotation Yrotation Xrotation
				JOINT LeftToe
				{
					OFFSET 0.026358 -0.055791 0.119288
					CHANNELS 3 Zrotation Yrotation Xrotation
					End Site
					{
						OFFSET 0.000000 0.000000 0.000000
					}
				}
			}
		}
	}
	JOINT RightUpLeg
	{
		OFFSET -0.067670 -0.090522 -0.004320
		CHANNELS 3 Zrotation Yrotation Xrotation
		JOINT RightLeg
		{
			OFFSET -0.038290 -0.382569 -0.008850
			CHANNELS 3 Zrotation Yrotation Xrotation
			JOINT RightFoot
			{
				OFFSET 0.015774 -0.398415 -0.042312
				CHANNELS 3 Zrotation Yrotation Xrotation
				JOINT RightToe
				{
					OFFSET -0.025372 -0.048144 0.123348
					CHANNELS 3 Zrotation Yrotation Xrotation
					End Site
					{
						OFFSET 0.000000 0.000000 0.000000
					}
				}
			}
		}
	}
	JOINT Spine
	{
		OFFSET -0.002533 0.108963 -0.026696
		CHANNELS 3 Zrotation Yrotation Xrotation
		JOINT Spine1
		{
			OFFSET 0.005487 0.135180 0.001092
			CHANNELS 3 Zrotation Yrotation Xrotation
			JOINT Spine2
			{
				OFFSET 0.001457 0.052922 0.025425
				CHANNELS 3 Zrotation Yrotation Xrotation
				JOINT Neck
				{
					OFFSET -0.002778 0.213870 -0.042857
					CHANNELS 3 Zrotation Yrotation Xrotation
					JOINT Head
					{
						OFFSET 0.005152 0.064970 0.051349
						CHANNELS 3 Zrotation Yrotation Xrotation
						End Site
						{
							OFFSET 0.000000 0.000000 0.000000
						}
					}
				}
				JOINT LeftShoulder
				{
					OFFSET 0.078845 0.121749 -0.034090
					CHANNELS 3 Zrotation Yrotation Xrotation
					JOINT LeftArm
					{
						OFFSET 0.090977 0.030469 -0.008868
						CHANNELS 3 Zrotation Yrotation Xrotation
						JOINT LeftForeArm
						{
							OFFSET 0.259612 -0.012772 -0.027456
							CHANNELS 3 Zrotation Yrotation Xrotation
							JOINT LeftHand
							{
								OFFSET 0.249234 0.008986 -0.001171
								CHANNELS 3 Zrotation Yrotation Xrotation
								End Site
								{
									OFFSET 0.000000 0.000000 0.000000
								}
							}
						}
					}
				}
				JOINT RightShoulder
				{
					OFFSET -0.081759 0.118833 -0.038615
					CHANNELS 3 Zrotation Yrotation Xrotation
					JOINT RightArm
					{
						OFFSET -0.096012 0.032551 -0.009143
						CHANNELS 3 Zrotation Yrotation Xrotation
						JOINT RightForeArm
						{
							OFFSET -0.253742 -0.013329 -0.021401
							CHANNELS 3 Zrotation Yrotation Xrotation
							JOINT RightHand
							{
								OFFSET -0.255298 0.007772 -0.005559
								CHANNELS 3 Zrotation Yrotation Xrotation
								End Site
								{
									OFFSET 0.000000 0.000000 0.000000
								}
							}
						}
					}
				}
			}
		}
	}
}
MOTION
Frames: 10
Frame Time: 0.050000
-0.332388 0.864784 0.625480 6.175367 2.082525 14.324043 24.693840 2.658706 -32.108805 -14.938534 6.915723 48.142669 6.223449 15.136244 14.733112 0.000000 0.000000 0.000000 -13.535460 -1.203884 -51.949537 13.835946 -7.118397 51.215532 -12.748465 -29.032851 8.066207 0.000000 0.000000 0.000000 -0.202803 -2.523012 47.498998 7.641081 -0.887029 -25.308913 -0.936062 -2.184142 23.019833 -9.827168 5.501956 -46.001075 0.000000 0.000000 0.000000 -41.337581 -3.854726 0.425331 -32.788974 -9.525042 -3.017256 9.637146 -36.437629 -1.257360 0.000000 0.000000 0.000000 23.366984 16.365292 8.028963 29.541710 17.564020 -0.370332 -27.458515 39.295970 -7.832344 0.000000 0.000000 0.000000 
-0.348459 0.867815 0.631186 7.499442 3.767151 13.979366 24.840808 2.560114 -33.622790 -20.611622 9.889326 48.710654 7.750522 17.531524 14.816742 0.000000 0.000000 0.000000 -13.848838 -1.802706 -51.106375 13.741162 -7.563889 51.938402 -13.546583 -30.207590 8.368541 0.000000 0.000000 0.000000 -0.528643 -2.766159 48.118862 7.669402 -0.823476 -25.852857 -1.264506 -0.805340 23.279189 -10.682683 6.070291 -44.918456 0.000000 0.000000 0.000000 -42.116601 -4.315715 -0.505224 -30.584136 -7.909473 -2.924235 10.338457 -39.457909 -1.792559 0.000000 0.000000 0.000000 21.822633 16.504659 8.717398 28.865917 18.164109 -0.486194 -28.022775 38.563329 -7.658033 0.000000 0.000000 0.000000 
-0.360478 0.869058 0.636060 8.264501 5.111996 14.144938 24.666088 2.414218 -35.201459 -24.792897 11.685014 47.418960 10.178255 21.177007 15.411500 0.000000 0.000000 0.000000 -13.551101 -2.004056 -50.303804 13.028011 -7.419468 51.844083 -12.975519 -29.192225 7.626166 0.000000 0.000000 0.000000 -0.633792 -3.089506 49.020642 6.797244 -0.592281 -26.144263 -0.971914 0.456627 23.316027 -12.245299 6.810417 -44.302226 0.000000 0.000000 0.000000 -41.834087 -4.205734 -1.663916 -29.124122 -7.160413 -2.734327 10.488342 -41.778438 -2.102037 0.000000 0.000000 0.000000 21.119349 16.851207 9.415324 27.867649 18.854572 -0.511311 -29.815012 37.238538 -7.793756 0.000000 0.000000 0.000000 
-0.368070 0.868646 0.640775 9.130337 6.776001 14.318465 23.948717 1.972550 -36.096226 -27.230539 11.838621 44.380390 11.164950 22.769631 15.085815 0.000000 0.000000 0.000000 -14.111201 -2.711463 -49.996424 13.140569 -7.962540 52.173596 -14.311432 -31.301128 8.254374 0.000000 0.000000 0.000000 -0.545441 -3.645022 50.158594 6.169687 -0.361112 -27.143360 -1.238755 1.555276 23.558728 -14.273939 7.727655 -43.732485 0.000000 0.000000 0.000000 -42.602699 -5.428531 -1.760971 -26.647827 -7.252553 -2.322453 11.560332 -41.649377 -2.616874 0.000000 0.000000 0.000000 21.104495 16.614725 9.855527 26.414031 19.205255 -0.665890 -31.016869 36.098820 -7.759395 0.000000 0.000000 0.000000 
-0.372132 0.867793 0.644599 9.666797 8.630626 15.077270 24.111214 1.698997 -37.386177 -29.153958 11.299080 39.956633 13.124250 25.762605 15.622073 0.000000 0.000000 0.000000 -14.189082 -3.244851 -49.667871 12.951450 -8.376810 52.455149 -14.519256 -31.567498 8.038664 0.000000 0.000000 0.000000 -0.229548 -4.294517 50.275429 4.987747 -0.105678 -26.898832 -0.866489 2.242315 23.222164 -15.799193 8.504461 -42.347512 0.000000 0.000000 0.000000 -43.168636 -6.043335 -2.192719 -24.607511 -7.272327 -2.003382 11.721189 -41.241447 -2.711565 0.000000 0.000000 0.000000 21.291233 16.577659 10.327929 25.193356 18.800803 -0.862163 -32.284526 35.142188 -7.813055 0.000000 0.000000 0.000000 
-0.373275 0.866175 0.647559 9.598318 9.480669 15.404884 24.855487 1.631062 -36.679617 -28.663037 9.516933 33.939126 13.742697 26.800960 16.032318 0.000000 0.000000 0.000000 -14.380277 -3.611856 -49.994385 13.478393 -8.956076 52.558474 -15.998274 -33.912661 8.724363 0.000000 0.000000 0.000000 -0.974500 -4.170647 50.719066 5.594029 -0.173486 -27.238601 -0.999724 4.535479 23.227359 -19.362490 10.280841 -40.151344 0.000000 0.000000 0.000000 -43.972848 -7.196568 -2.977717 -22.251295 -6.996398 -1.607810 11.558398 -40.863602 -2.699339 0.000000 0.000000 0.000000 22.528714 16.745925 11.554257 23.221174 18.464991 -1.163727 -32.552841 33.699349 -7.437214 0.000000 0.000000 0.000000 
-0.371925 0.865108 0.649062 9.585865 11.418694 15.616714 24.894694 1.206421 -36.199938 -25.367064 6.796612 28.177831 13.763591 27.076520 16.789729 0.000000 0.000000 0.000000 -14.457984 -4.083965 -49.091697 13.670408 -9.467797 51.855859 -16.735787 -35.186219 8.190806 0.000000 0.000000 0.000000 -1.561939 -4.495823 51.798915 5.180880 -0.022197 -27.837503 -0.669899 4.994646 24.364217 -20.746247 10.891414 -40.242950 0.000000 0.000000 0.000000 -42.857070 -7.377766 -3.339436 -22.562741 -8.631218 -1.367998 13.199023 -39.887299 -3.266958 0.000000 0.000000 0.000000 21.820030 17.807209 12.414157 23.228175 18.825631 -1.187988 -34.516465 30.685227 -7.079530 0.000000 0.000000 0.000000 
-0.368115 0.863427 0.648985 9.201098 11.911453 15.715765 24.514567 0.981911 -35.452562 -20.998796 4.813951 24.568658 11.444100 24.052544 16.188710 0.000000 0.000000 0.000000 -14.723336 -4.263672 -48.644824 14.679300 -10.142970 51.156168 -17.598760 -36.694575 8.074166 0.000000 0.000000 0.000000 -3.498992 -3.734757 53.025752 5.194462 0.020378 -28.373451 0.302988 6.166633 24.549339 -23.041443 11.893998 -39.279251 0.000000 0.000000 0.000000 -42.307196 -8.828699 -2.809486 -21.875098 -8.696037 -1.212930 14.047834 -39.033457 -3.535567 0.000000 0.000000 0.000000 21.426823 18.188128 12.934807 24.215612 18.417823 -1.236145 -35.879686 30.372463 -7.226595 0.000000 0.000000 0.000000 
-0.361201 0.861362 0.647627 7.610382 13.647385 16.121463 25.889745 0.982520 -36.299890 -19.516534 4.105760 23.419982 9.588921 21.699352 16.762031 0.000000 0.000000 0.000000 -14.442878 -4.692612 -49.316206 16.211975 -11.579593 51.159073 -18.381911 -37.695290 8.576053 0.000000 0.000000 0.000000 -4.325998 -3.809276 53.381370 5.986222 -0.086230 -28.509935 0.339441 7.758503 25.277054 -22.956604 11.958207 -39.525566 0.000000 0.000000 0.000000 -40.549254 -9.356789 -3.362738 -22.822712 -9.848894 -0.949558 14.349744 -37.936517 -3.642439 0.000000 0.000000 0.000000 22.082179 17.767931 13.577387 24.231031 19.715340 -1.231751 -37.089386 28.543266 -6.805345 0.000000 0.000000 0.000000 
-0.351200 0.859211 0.645525 6.152310 14.626887 16.518447 26.980644 1.029301 -36.583543 -19.531649 3.963414 22.654423 9.770954 22.059477 16.082750 0.000000 0.000000 0.000000 -14.496179 -5.069925 -50.092929 17.300158 -12.558782 51.273705 -18.672435 -37.672069 9.687966 0.000000 0.000000 0.000000 -5.464840 -3.447363 53.338930 6.014516 -0.097642 -28.219639 1.566656 8.581080 25.211205 -24.440813 12.539104 -38.965688 0.000000 0.000000 0.000000 -41.188605 -10.822737 -2.966665 -22.194164 -9.628024 -0.830672 14.977538 -38.144769 -3.870134 0.000000 0.000000 0.000000 21.713313 18.171417 14.088636 24.540189 19.686231 -1.244393 -38.352070 28.374803 -6.933872 0.000000 0.000000 0.000000 
